<?xml version="1.0" encoding="UTF-8" standalone="no"?>
<!-- Created with Inkscape (http://www.inkscape.org/) -->

<svg
   width="11mm"
   height="11mm"
   viewBox="0 0 11 11"
   version="1.1"
   id="svg5"
   inkscape:version="1.1.2 (0a00cf5339, 2022-02-04)"
   sodipodi:docname="clover.svg"
   xmlns:inkscape="http://www.inkscape.org/namespaces/inkscape"
   xmlns:sodipodi="http://sodipodi.sourceforge.net/DTD/sodipodi-0.dtd"
   xmlns="http://www.w3.org/2000/svg"
   xmlns:svg="http://www.w3.org/2000/svg">
  <sodipodi:namedview
     id="namedview7"
     pagecolor="#ffffff"
     bordercolor="#666666"
     borderopacity="1.0"
     inkscape:pageshadow="2"
     inkscape:pageopacity="0.0"
     inkscape:pagecheckerboard="0"
     inkscape:document-units="mm"
     showgrid="false"
     inkscape:zoom="7.8010305"
     inkscape:cx="12.498349"
     inkscape:cy="-0.38456458"
     inkscape:window-width="1920"
     inkscape:window-height="1043"
     inkscape:window-x="1920"
     inkscape:window-y="0"
     inkscape:window-maximized="1"
     inkscape:current-layer="layer1"
     units="mm"
     width="9.22mm" />
  <defs
     id="defs2" />
  <g
     inkscape:label="Layer 1"
     inkscape:groupmode="layer"
     id="layer1">
    <path
       id="path1112"
       style="fill:#000000;stroke-width:0.484554"
       sodipodi:type="inkscape:offset"
       inkscape:radius="0.35135069"
       inkscape:original="M 17.347656 3.7167969 C 17.077209 3.7225069 16.808617 3.7589109 16.546875 3.8222656 C 16.00641 3.8901936 15.480783 4.0424827 15.027344 4.2851562 C 14.539947 4.5460027 14.037418 5.2460543 13.685547 6.1132812 C 13.325127 6.8122822 13.141306 7.5674379 13.142578 8.3867188 C 13.059798 9.3000328 13.175238 10.165129 13.546875 11.132812 C 14.081555 12.612908 15.142583 14.253737 16.794922 16.267578 C 18.14593 17.914162 18.785558 18.764711 18.669922 18.839844 L 18.042969 18.330078 C 17.872836 18.191365 17.73718 18.081747 17.576172 17.951172 L 16.955078 17.435547 C 15.131131 15.917643 13.781631 14.92197 12.599609 14.285156 C 12.49839 14.230624 12.395795 14.174284 12.296875 14.125 C 11.693812 13.81349 11.152658 13.614142 10.554688 13.453125 C 9.8874049 13.273444 9.2413155 13.201948 8.6289062 13.216797 C 8.3538611 13.211697 8.0909146 13.227468 7.84375 13.267578 C 7.815961 13.272078 7.7892697 13.278333 7.7617188 13.283203 C 7.6649698 13.296963 7.5677058 13.311888 7.4707031 13.330078 C 4.1094646 13.960652 2.6769498 17.114068 4.5410156 19.775391 C 4.8919775 20.276459 5.0680721 20.568649 5.0722656 20.832031 C 5.0439126 21.07827 4.8719062 21.306137 4.5585938 21.652344 C 4.1728926 22.078539 3.9339459 22.639392 3.8339844 23.251953 C 3.8175234 23.309043 3.8018586 23.365537 3.7910156 23.417969 C 3.6796193 23.956637 3.6948645 24.504556 3.8203125 25.025391 C 3.8879765 25.567313 4.0418636 26.094232 4.2851562 26.548828 C 4.5460028 27.036225 5.2460543 27.536801 6.1132812 27.888672 C 6.8061203 28.245915 7.5542893 28.427773 8.3652344 28.429688 C 9.2981169 28.517298 10.179646 28.401608 11.169922 28.015625 C 12.640432 27.476691 14.270413 26.419907 16.267578 24.78125 C 17.912229 23.431829 18.762974 22.790575 18.839844 22.904297 L 18.330078 23.53125 C 18.198158 23.693051 18.095257 23.823023 17.970703 23.976562 L 17.435547 24.619141 C 15.922298 26.437494 14.928106 27.785406 14.291016 28.964844 C 14.279476 28.985404 14.269083 29.005001 14.257812 29.025391 C 14.213002 29.109581 14.166162 29.194737 14.125 29.277344 C 13.81349 29.880407 13.614142 30.42156 13.453125 31.019531 C 13.27355 31.686422 13.202061 32.333223 13.216797 32.945312 C 13.211697 33.220359 13.227468 33.483304 13.267578 33.730469 C 13.271978 33.757619 13.278453 33.783617 13.283203 33.810547 C 13.297043 33.908097 13.311738 34.005706 13.330078 34.103516 C 13.960652 37.464754 17.114068 38.899222 19.775391 37.035156 C 20.269095 36.689353 20.559892 36.51306 20.820312 36.503906 C 21.071036 36.528136 21.300722 36.697412 21.652344 37.015625 C 22.078092 37.400923 22.638186 37.640086 23.25 37.740234 C 23.3078 37.756944 23.364929 37.774186 23.417969 37.785156 C 23.94994 37.895168 24.488927 37.879002 25.003906 37.757812 C 25.005806 37.757374 25.007866 37.758254 25.009766 37.757812 C 25.557197 37.691162 26.089856 37.536651 26.548828 37.291016 C 27.036076 37.030249 27.536816 36.329748 27.888672 35.462891 C 28.246426 34.76931 28.42806 34.02094 28.429688 33.208984 C 28.517377 32.274706 28.401138 31.392531 28.013672 30.400391 C 27.474134 28.931267 26.41793 27.301396 24.78125 25.306641 C 23.431829 23.66199 22.790575 22.811244 22.904297 22.734375 L 23.53125 23.244141 C 23.696828 23.37914 23.829398 23.485993 23.986328 23.613281 L 24.619141 24.138672 C 26.437494 25.65192 27.785406 26.646113 28.964844 27.283203 C 29.012654 27.310053 29.058564 27.333975 29.105469 27.359375 C 29.152199 27.383755 29.199849 27.412307 29.246094 27.435547 C 29.861336 27.756127 30.411605 27.959349 31.019531 28.123047 C 31.700582 28.306435 32.360809 28.37633 32.984375 28.357422 C 33.245109 28.360222 33.495129 28.344831 33.730469 28.306641 C 33.749719 28.303541 33.767979 28.298242 33.787109 28.294922 C 33.892486 28.280362 33.997848 28.265924 34.103516 28.246094 C 37.464754 27.61552 38.899221 24.462103 37.035156 21.800781 C 36.689353 21.307077 36.51306 21.014328 36.503906 20.753906 C 36.528836 20.503938 36.698229 20.274547 37.015625 19.923828 C 37.400978 19.498018 37.640112 18.936135 37.740234 18.324219 C 37.756944 18.266419 37.774186 18.20929 37.785156 18.15625 C 37.895301 17.623638 37.879403 17.0839 37.757812 16.568359 C 37.757812 16.568359 37.757812 16.566406 37.757812 16.566406 C 37.691162 16.018975 37.53665 15.486316 37.291016 15.027344 C 37.030249 14.540096 36.329748 14.037403 35.462891 13.685547 C 34.763148 13.324614 34.007793 13.141014 33.1875 13.142578 C 32.274783 13.059938 31.410346 13.173738 30.443359 13.544922 C 28.962914 14.079443 27.321092 15.142082 25.306641 16.794922 C 23.660057 18.14593 22.809507 18.785558 22.734375 18.669922 L 23.244141 18.042969 C 23.385648 17.869409 23.497817 17.730475 23.630859 17.566406 L 24.138672 16.955078 C 25.656576 15.131131 26.652249 13.781631 27.289062 12.599609 C 27.338983 12.510489 27.384671 12.424043 27.429688 12.337891 C 27.431387 12.334491 27.433747 12.331625 27.435547 12.328125 C 27.756127 11.712883 27.959349 11.162614 28.123047 10.554688 C 28.306367 9.8738868 28.376255 9.2151605 28.357422 8.5917969 C 28.360322 8.3303498 28.344921 8.0796808 28.306641 7.84375 C 28.303441 7.823866 28.298342 7.8049193 28.294922 7.7851562 C 28.280442 7.6806493 28.265754 7.5754974 28.246094 7.4707031 C 27.61552 4.1094646 24.462103 2.6769526 21.800781 4.5410156 C 21.300925 4.8911286 21.007033 5.0672456 20.744141 5.0722656 C 20.497818 5.0439939 20.270035 4.8719063 19.923828 4.5585938 C 19.497567 4.172833 18.934938 3.9339183 18.322266 3.8339844 C 18.265178 3.8175232 18.208682 3.8018585 18.15625 3.7910156 C 17.886916 3.7353175 17.616664 3.7111166 17.347656 3.7167969 z M 24.410156 4.4648438 C 24.501986 4.4625138 24.592186 4.4664462 24.681641 4.4726562 C 25.208925 4.6031793 25.739624 4.958373 26.318359 5.5371094 C 26.522678 5.7414277 26.701955 5.9522374 26.857422 6.171875 C 27.150175 6.7448097 27.356338 7.4494579 27.441406 8.2714844 C 27.488576 8.7272599 27.503002 9.1502284 27.476562 9.5625 C 27.091234 11.430738 25.734974 13.705232 23.365234 16.533203 L 21.808594 18.390625 L 21.013672 19.302734 L 18.501953 16.558594 C 17.698739 15.680803 16.852052 14.640552 16.169922 13.71875 C 15.482745 12.7208 14.939787 11.767784 14.5625 10.912109 C 14.217891 9.8897164 14.112497 8.8457902 14.222656 7.9042969 C 14.435166 6.6072107 15.12505 5.456472 15.972656 4.84375 C 16.162709 4.7383554 16.366863 4.6544349 16.583984 4.5976562 C 16.648614 4.5807563 16.716056 4.5676078 16.785156 4.5585938 C 17.279699 4.5518937 17.818399 4.6692009 18.341797 4.8867188 C 18.668542 5.1163508 19.017007 5.4017726 19.332031 5.7167969 L 20.044922 6.4316406 L 20.496094 6.8808594 L 20.673828 7.0605469 C 20.943906 6.7711623 21.246237 6.5144165 21.537109 6.2460938 C 21.641567 6.1553837 21.863582 5.9690478 22.130859 5.734375 C 22.798464 5.1482105 23.32758 4.7533405 23.792969 4.5410156 C 23.999501 4.4973276 24.20726 4.469994 24.410156 4.4648438 z M 9.1933594 14.085938 C 9.3221001 14.086732 9.4481925 14.091239 9.5742188 14.099609 C 11.440246 14.488205 13.711167 15.844219 16.533203 18.208984 L 18.333984 19.71875 L 19.302734 20.5625 L 16.558594 23.072266 C 15.688825 23.868134 14.659722 24.70775 13.744141 25.386719 C 13.740341 25.389519 13.736242 25.391731 13.732422 25.394531 C 12.725626 26.088837 11.764501 26.636441 10.902344 27.015625 C 9.8830284 27.357635 8.8428253 27.461376 7.9042969 27.351562 C 6.6072117 27.139066 5.456472 26.449169 4.84375 25.601562 C 4.7383554 25.41151 4.6544349 25.209309 4.5976562 24.992188 C 4.5807563 24.927557 4.5676078 24.860115 4.5585938 24.791016 C 4.5518538 24.296409 4.6691662 23.755903 4.8867188 23.232422 C 5.1162649 22.9059 5.4020221 22.558915 5.7167969 22.244141 L 6.4335938 21.529297 L 6.8808594 21.082031 L 7.0605469 20.902344 L 6.9414062 20.792969 L 6.3359375 20.142578 C 6.3273675 20.139878 6.3190819 20.135712 6.3105469 20.132812 C 6.1562075 19.933218 5.9698686 19.711572 5.734375 19.443359 C 5.1475315 18.774981 4.7531583 18.245077 4.5410156 17.779297 C 4.4780058 17.47995 4.4526083 17.178978 4.4726562 16.892578 C 4.6031793 16.365294 4.958373 15.834595 5.5371094 15.255859 C 5.7414277 15.051541 5.9522374 14.872264 6.171875 14.716797 C 6.7448097 14.424044 7.4494579 14.219834 8.2714844 14.134766 C 8.5921915 14.101576 8.8971724 14.084108 9.1933594 14.085938 z M 32.859375 14.179688 C 33.135525 14.176488 33.40715 14.191996 33.669922 14.222656 C 34.971475 14.435601 36.124862 15.129048 36.736328 15.980469 C 36.839687 16.168321 36.920552 16.369799 36.976562 16.583984 C 36.993462 16.648614 37.006615 16.716056 37.015625 16.785156 C 37.022325 17.280233 36.905467 17.819824 36.6875 18.34375 C 36.458013 18.670115 36.172022 19.017431 35.857422 19.332031 L 35.144531 20.044922 L 34.693359 20.496094 L 34.515625 20.673828 L 34.632812 20.78125 L 35.238281 21.433594 C 35.248181 21.436794 35.257688 21.441993 35.267578 21.445312 C 35.421465 21.644123 35.605756 21.864248 35.839844 22.130859 C 36.429353 22.802273 36.825691 23.333465 37.037109 23.800781 C 37.099329 24.098155 37.123266 24.397093 37.103516 24.681641 C 36.973014 25.20896 36.617838 25.739585 36.039062 26.318359 C 35.832971 26.524452 35.618168 26.70494 35.396484 26.861328 C 35.395184 26.862 35.393878 26.862581 35.392578 26.863281 C 34.821788 27.152812 34.121042 27.356925 33.304688 27.441406 C 32.849401 27.488526 32.425526 27.502883 32.013672 27.476562 C 30.145378 27.091318 27.869139 25.7351 25.041016 23.365234 L 23.271484 21.882812 L 22.271484 21.011719 L 25.017578 18.501953 C 25.897371 17.696912 26.939943 16.84892 27.863281 16.166016 C 28.858631 15.481153 29.808487 14.938882 30.662109 14.5625 C 31.3985 14.314291 32.146622 14.187987 32.859375 14.179688 z M 20.5625 22.273438 L 23.072266 25.017578 C 23.873884 25.893631 24.718938 26.931102 25.400391 27.851562 C 26.091631 28.854923 26.637632 29.812424 27.015625 30.671875 C 27.357403 31.690496 27.461012 32.731892 27.351562 33.669922 C 27.138618 34.971475 26.445171 36.124862 25.59375 36.736328 C 25.405898 36.839687 25.206373 36.920552 24.992188 36.976562 C 24.927557 36.993462 24.860115 37.006615 24.791016 37.015625 C 24.296409 37.022325 23.755903 36.905052 23.232422 36.6875 C 22.9059 36.457953 22.558915 36.172197 22.244141 35.857422 L 21.529297 35.142578 L 21.080078 34.693359 L 21.078125 34.693359 L 20.902344 34.515625 L 20.792969 34.634766 L 20.142578 35.238281 C 20.139478 35.247981 20.136112 35.257888 20.132812 35.267578 C 19.933643 35.421665 19.710675 35.605137 19.443359 35.839844 C 18.771946 36.429353 18.240752 36.825691 17.773438 37.037109 C 17.47608 37.099189 17.177051 37.123426 16.892578 37.103516 C 16.365259 36.973014 15.834634 36.617838 15.255859 36.039062 C 15.049767 35.832971 14.869278 35.618168 14.712891 35.396484 C 14.712067 35.395284 14.711838 35.393778 14.710938 35.392578 C 14.421406 34.821788 14.219247 34.121042 14.134766 33.304688 C 14.087276 32.845821 14.072419 32.418816 14.099609 32.003906 C 14.487611 30.137476 15.843313 27.864133 18.208984 25.041016 L 19.669922 23.296875 L 20.5625 22.273438 z "
       d="m 17.339844,3.3652344 c -0.283755,0.00599 -0.562739,0.045918 -0.835938,0.109375 -0.0014,1.818e-4 -0.0025,0.00177 -0.0039,0.00195 -0.575461,0.072782 -1.140807,0.2315971 -1.638672,0.4980469 -0.622441,0.3331198 -1.118609,1.0779469 -1.488281,1.9785156 -9.53e-4,0.00185 -0.001,0.00401 -0.002,0.00586 -0.380515,0.7400847 -0.576421,1.5457831 -0.578125,2.4082031 -0.08497,0.9562868 0.03923,1.8808865 0.423828,2.8847655 1.77e-4,4.91e-4 -1.78e-4,0.0015 0,0.002 5.45e-4,0.0014 0.0014,0.0025 0.002,0.0039 0.557509,1.540309 1.64163,3.205518 3.304688,5.232422 0.153406,0.18697 0.201117,0.257548 0.335937,0.423828 -1.655033,-1.361463 -2.955416,-2.324222 -4.09375,-2.9375 -0.09782,-0.0527 -0.200787,-0.11114 -0.306641,-0.164062 l -0.0059,-0.002 C 11.830549,13.489492 11.261409,13.278864 10.646484,13.113281 9.9481438,12.925237 9.2696215,12.849954 8.625,12.865234 h -0.00391 c -0.2876348,-0.0046 -0.5666657,0.01131 -0.8339844,0.05469 -0.04346,0.007 -0.070864,0.01491 -0.085937,0.01758 -0.095739,0.0137 -0.1943232,0.02801 -0.2949219,0.04687 -1.7760491,0.33319 -3.0829643,1.349061 -3.6796875,2.662109 -0.5967232,1.313049 -0.4663622,2.911367 0.5273437,4.330078 0.3356435,0.479198 0.4445567,0.719871 0.453125,0.835938 -0.018818,0.111094 -0.1141445,0.278584 -0.4082031,0.603516 -0.4401602,0.486371 -0.7036949,1.112542 -0.8125,1.779296 -0.013638,0.0483 -0.027787,0.09782 -0.039063,0.152344 -0.1206003,0.583175 -0.1046641,1.174114 0.027344,1.736328 0.07333,0.573483 0.2349936,1.135691 0.5,1.63086 0.3332995,0.622776 1.0783572,1.116867 1.9785156,1.486328 0.00185,9.53e-4 0.00401,0.001 0.00586,0.002 0.7339549,0.377354 1.5334733,0.571169 2.3867187,0.576172 0.9752292,0.08959 1.9186449,-0.03439 2.9453129,-0.433594 1.531082,-0.561133 3.186848,-1.641836 5.199218,-3.292969 0.184984,-0.151777 0.255182,-0.19841 0.419922,-0.332031 -1.354368,1.646888 -2.31518,2.94411 -2.927734,4.078125 -0.01239,0.02224 -0.02266,0.0411 -0.03125,0.05664 a 0.35138583,0.35138583 0 0 0 -0.0039,0.0039 c -0.04327,0.08129 -0.09109,0.17015 -0.136719,0.261719 -0.321054,0.622575 -0.531683,1.191715 -0.697266,1.80664 -0.18796,0.698031 -0.263209,1.3772 -0.248047,2.021485 2.9e-5,0.0012 -2.9e-5,0.0027 0,0.0039 -0.0046,0.287636 0.01131,0.566666 0.05469,0.833984 0.0074,0.04592 0.0156,0.07275 0.01758,0.08398 0.01368,0.09598 0.02775,0.194893 0.04687,0.296875 0.333188,1.776036 1.349097,3.0844 2.662109,3.68164 1.313012,0.597241 2.911319,0.466396 4.330078,-0.527343 0.47349,-0.331644 0.71598,-0.444964 0.832032,-0.455078 0.115266,0.01683 0.277746,0.10985 0.607422,0.408203 0.485785,0.439631 1.111262,0.703469 1.777343,0.8125 0.04658,0.01364 0.09453,0.02865 0.154297,0.04102 0.574772,0.118863 1.154204,0.100645 1.707032,-0.02539 0.0057,-0.0013 0.01184,-6.21e-4 0.01758,-0.002 6.28e-4,-7.8e-5 0.0013,8e-5 0.002,0 8.2e-4,-1.03e-4 0.0011,-0.0018 0.002,-0.002 7.2e-4,-6.8e-5 0.0059,-7e-6 0.0059,0 0.574321,-0.07318 1.136976,-0.232682 1.632813,-0.498047 0.62279,-0.333306 1.116881,-1.078722 1.486328,-1.978515 l 0.002,-0.0059 c 0.377894,-0.734744 0.571474,-1.534476 0.576172,-2.388672 0.08967,-0.976685 -0.03485,-1.920738 -0.435547,-2.949219 v -0.002 c -0.561854,-1.529067 -1.64235,-3.183997 -3.291016,-5.19336 -0.151777,-0.184983 -0.19841,-0.255181 -0.332031,-0.419922 1.646887,1.354368 2.94411,2.315181 4.078125,2.927735 0.05143,0.02875 0.09658,0.05337 0.138672,0.07617 a 0.35138583,0.35138583 0 0 0 0.0059,0.002 c 0.03294,0.01719 0.08013,0.04748 0.140625,0.07813 5.87e-4,3.06e-4 0.0014,-3.06e-4 0.002,0 0.001,5.06e-4 9.42e-4,0.0014 0.002,0.002 0.635762,0.330886 1.2142,0.544422 1.839843,0.712891 0.712461,0.191845 1.40488,0.265445 2.060547,0.246093 0.0018,-5.4e-5 0.004,5.6e-5 0.0059,0 0.272056,0.0023 0.537901,-0.0133 0.792968,-0.05469 0.03791,-0.0061 0.04557,-0.01056 0.04883,-0.01172 l 0.01172,-0.002 c 0.101809,-0.01406 0.207552,-0.02767 0.320313,-0.04883 1.776036,-0.333188 3.0844,-1.349097 3.68164,-2.662109 0.597241,-1.313013 0.466395,-2.91132 -0.527343,-4.330079 -0.331091,-0.472699 -0.442789,-0.717601 -0.453125,-0.833984 0.01774,-0.114834 0.109721,-0.277808 0.40625,-0.605469 0.440012,-0.486208 0.703517,-1.113224 0.8125,-1.779297 0.01364,-0.04658 0.02865,-0.09453 0.04102,-0.154297 0.115414,-0.558087 0.09669,-1.119531 -0.01953,-1.658203 v -0.002 a 0.35138583,0.35138583 0 0 0 0,-0.002 0.35138583,0.35138583 0 0 0 -0.002,-0.04102 c -8.36e-4,-0.0069 -0.005,-0.01267 -0.0059,-0.01953 -0.07255,-0.577802 -0.233096,-1.143863 -0.5,-1.642578 -0.333127,-0.622454 -1.078311,-1.118623 -1.978515,-1.488281 l -0.0059,-0.002 c -0.740873,-0.381057 -1.546784,-0.576732 -2.410157,-0.578125 -0.955275,-0.0848 -1.879353,0.03763 -2.882812,0.421875 -4.91e-4,1.77e-4 -0.0015,-1.78e-4 -0.002,0 -0.0014,5.44e-4 -0.0025,0.0014 -0.0039,0.002 -1.540861,0.557415 -3.206909,1.643122 -5.234375,3.306641 -0.186969,0.153406 -0.257547,0.201117 -0.423828,0.335937 1.361464,-1.655033 2.324224,-2.955416 2.9375,-4.09375 0.05135,-0.09187 0.09795,-0.180219 0.142578,-0.265625 a 0.35138583,0.35138583 0 0 0 0.0039,-0.0059 c -0.01628,0.03258 -0.0063,0.01583 0.0039,-0.0039 v -0.002 c 0.331611,-0.636722 0.546159,-1.215352 0.714844,-1.841797 0.191747,-0.7120982 0.265366,-1.4031712 0.246093,-2.0585934 0.0027,-0.2749223 -0.0129,-0.5432222 -0.05469,-0.8007812 -0.0057,-0.035125 -0.01022,-0.045019 -0.01172,-0.050781 l -0.002,-0.00977 c -6e-6,-1.18e-5 -5e-6,-0.00198 0,-0.00195 C 28.626562,7.6231607 28.612692,7.51763 28.591797,7.40625 28.258607,5.6302009 27.242736,4.3232853 25.929688,3.7265625 24.616639,3.1298397 23.018321,3.2602018 21.599609,4.2539062 21.121897,4.5885089 20.879958,4.6980994 20.763672,4.7070312 20.652631,4.6882558 20.48513,4.5929246 20.160156,4.2988281 c -0.486795,-0.4405436 -1.114495,-0.7037446 -1.78125,-0.8125 -0.0483,-0.013639 -0.09782,-0.027788 -0.152344,-0.039063 -0.295213,-0.06105 -0.591686,-0.088261 -0.886718,-0.082031 z m 7.080078,1.4511718 c 0.06102,-0.00155 0.125802,1.487e-4 0.191406,0.00391 0.432979,0.1108712 0.910771,0.4166288 1.458984,0.9648437 0.185345,0.1853442 0.344437,0.3750569 0.484376,0.5703126 0.264526,0.5250086 0.456985,1.1788744 0.537109,1.953125 0.04484,0.4332384 0.05639,0.8264787 0.0332,1.2089843 -0.370668,1.7601459 -1.687258,3.9941489 -4.029297,6.7890629 l -1.554687,1.855468 -0.533204,0.613282 -2.246093,-2.453125 c -0.792572,-0.866161 -1.634117,-1.899173 -2.308594,-2.810547 -2.8e-4,-3.79e-4 2.8e-4,-0.0016 0,-0.002 -0.67162,-0.976521 -1.199928,-1.907175 -1.564453,-2.732422 C 14.567717,9.813966 14.4712,8.8316002 14.572266,7.9550781 14.770792,6.7535456 15.422214,5.6856308 16.167969,5.140625 c 0.15899,-0.085853 0.327468,-0.1564743 0.505859,-0.203125 0.03995,-0.010446 0.08176,-0.018655 0.125,-0.025391 0.424373,-0.00425 0.90605,0.1004878 1.378906,0.2929687 0.300291,0.2140126 0.61956,0.4730755 0.90625,0.7597657 l 0.712891,0.7148437 0.451172,0.4492187 0.175781,0.1796876 a 0.35138583,0.35138583 0 0 0 0.507813,-0.00781 c 0.249172,-0.2669849 0.540875,-0.5172581 0.835937,-0.7890624 l 0.0078,-0.00781 c 0.100374,-0.086988 0.321205,-0.2717064 0.58789,-0.5058593 0.647322,-0.5683555 1.14854,-0.9305362 1.552735,-1.1191407 0.171246,-0.033656 0.342683,-0.058408 0.503906,-0.0625 z M 9.1914062,14.4375 c 0.1106786,6.83e-4 0.2182535,0.0032 0.3261719,0.0098 1.7598359,0.371085 3.9950449,1.689963 6.7890629,4.03125 l 1.798828,1.507812 0.669922,0.582031 -2.453125,2.244141 c -0.858734,0.78577 -1.881666,1.621517 -2.78711,2.292969 0.01544,-0.01149 0.01669,-0.01353 -0.0098,0.0059 -0.98313,0.677299 -1.917852,1.207773 -2.748047,1.574219 C 9.8139102,27.006593 8.8319154,27.10306 7.9550781,27.001953 6.7535514,26.803441 5.6856317,26.152007 5.140625,25.40625 5.0543961,25.246716 4.984019,25.080232 4.9375,24.902344 c -0.010446,-0.03995 -0.018655,-0.08176 -0.025391,-0.125 -0.00429,-0.424451 0.1005386,-0.908067 0.2929687,-1.38086 0.2136256,-0.299521 0.4728834,-0.617415 0.7597657,-0.904296 l 0.7167968,-0.714844 0.4472656,-0.447266 0.1796876,-0.179687 a 0.35138583,0.35138583 0 0 0 -0.00977,-0.507813 L 7.1894531,20.542969 6.59375,19.902344 a 0.35138583,0.35138583 0 0 0 -0.039063,-0.02539 C 6.3995882,19.67853 6.2225816,19.466669 5.9980469,19.210938 5.4304383,18.564467 5.0697851,18.06445 4.8808594,17.660156 4.8334086,17.41711 4.8117487,17.1776 4.8242188,16.953125 4.9370685,16.52253 5.2407611,16.048301 5.7851562,15.503906 c 0.1853445,-0.185344 0.3750569,-0.344437 0.5703126,-0.484375 0.5244607,-0.264194 1.1783541,-0.454978 1.953125,-0.535156 0.3105761,-0.03214 0.601929,-0.04861 0.8828124,-0.04687 z m 23.6718748,0.09375 c 0.256356,-0.003 0.508823,0.01288 0.753907,0.04102 1.205381,0.198389 2.275834,0.853143 2.820312,1.601562 0.0838,0.156351 0.1527,0.322111 0.199219,0.5 0.01045,0.03996 0.01866,0.08178 0.02539,0.125 0.0043,0.425174 -0.100208,0.907756 -0.292968,1.38086 -0.213602,0.299424 -0.473085,0.617615 -0.759766,0.904296 l -0.712891,0.712891 -0.451172,0.451172 -0.177734,0.177734 a 0.35138583,0.35138583 0 0 0 0.0098,0.507813 l 0.107422,0.09766 0.595703,0.640625 a 0.35138583,0.35138583 0 0 0 0.04102,0.02734 c 0.154431,0.197593 0.330612,0.408855 0.554688,0.664062 0.570404,0.649655 0.933128,1.149963 1.121094,1.554688 0.04673,0.240604 0.0669,0.479374 0.05469,0.703125 -0.112831,0.430616 -0.416494,0.904777 -0.960937,1.449218 -0.186828,0.18683 -0.381233,0.348477 -0.580078,0.490235 -0.523197,0.261693 -1.174558,0.45169 -1.94336,0.53125 -0.431976,0.04471 -0.827364,0.05614 -1.208984,0.0332 -1.76025,-0.370597 -3.996005,-1.687178 -6.791016,-4.029297 L 23.5,21.615234 l -0.701172,-0.609375 2.455078,-2.24414 c 0.868102,-0.794343 1.903484,-1.637236 2.816406,-2.3125 h 0.002 c 0.972771,-0.66854 1.898576,-1.19511 2.720703,-1.558594 0.69592,-0.232331 1.402524,-0.3516 2.070312,-0.359375 z m -12.294922,8.269531 2.244141,2.453125 c 0.791046,0.864499 1.630906,1.894675 2.304688,2.804688 2.8e-4,3.78e-4 -2.81e-4,0.0016 0,0.002 0.673831,0.97925 1.203334,1.909369 1.568359,2.736328 0.320769,0.962629 0.41718,1.945867 0.316406,2.822266 -0.198761,1.204614 -0.853534,2.274165 -1.601562,2.818359 -0.15692,0.08418 -0.320668,0.152834 -0.498047,0.199219 -0.03996,0.01045 -0.08178,0.01866 -0.125,0.02539 -0.424489,0.0043 -0.90808,-0.100545 -1.38086,-0.292968 -0.299522,-0.213627 -0.617415,-0.472884 -0.904296,-0.759766 l -0.714844,-0.714844 -0.449219,-0.449219 a 0.35138583,0.35138583 0 0 0 -0.248047,-0.103515 h 0.144531 l -0.07227,-0.07227 a 0.35138583,0.35138583 0 0 0 -0.509766,0.0078 l -0.09961,0.109375 -0.638672,0.59375 a 0.35138583,0.35138583 0 0 0 -0.0293,0.04492 c -0.195839,0.15282 -0.408612,0.326492 -0.664062,0.550781 -0.649653,0.570403 -1.149965,0.933128 -1.554688,1.121094 -0.241439,0.04681 -0.479275,0.06717 -0.703125,0.05469 -0.430616,-0.112831 -0.904776,-0.416494 -1.449219,-0.960937 -0.186829,-0.186829 -0.348478,-0.381234 -0.490234,-0.580078 -0.261372,-0.522651 -0.449681,-1.174014 -0.529297,-1.94336 -0.0451,-0.435743 -0.05688,-0.832707 -0.0332,-1.216797 0.373229,-1.758823 1.689367,-3.993136 4.027344,-6.783203 L 19.9375,23.525391 Z"
       transform="scale(0.26458333)" />
  </g>
</svg>
